PathFileType	4	(X/Y/Z)	D:\TRACE\v60_Jaco2_6-2-23\JustArmDRS_Motion1_3-v60.trc
DataRate	CameraRate	NumFrames	NumMarkers	Units	OrigDataRate	OrigDataStartFrame	OrigNumFrames
100.00	100.00	      35	9	mm	100.00	1	      6763
Frame#	Time	front left toe			Front right toe			aft left toe			aft right toe			Arm			FL body			FR body			AL Body			AR Body			
		X1	Y1	Z1	X2	Y2	Z2	X3	Y3	Z3	X4	Y4	Z4	X5	Y5	Z5	X6	Y6	Z6	X7	Y7	Z7	X8	Y8	Z8	X9	Y9	Z9	

1	0.000	-200.72614	19.93217	-166.19453	206.89665	17.99165	-210.78995	-135.25462	17.18281	438.62573	267.96439	19.23604	426.83804	0.52418	1219.68445	-287.34476	-88.32160	581.95428	-311.02200	71.62009	581.58057	-328.44934	13.09179	586.51062	629.85663	168.67586	580.36578	613.67047	
2	0.010	-200.70940	19.93311	-166.17596	206.96904	18.05307	-210.79279	-135.09413	17.11329	438.63416	268.05936	19.26912	426.87790	13.52965	1210.80054	-216.80585	-88.39300	582.00879	-311.03110	71.59205	581.57617	-328.46777	13.04639	586.50836	629.81946	168.71620	580.37720	613.64209	
3	0.020	-200.72566	19.92317	-166.16823	206.93408	18.01489	-210.80026	-135.11337	17.08288	438.68332	268.00797	19.22527	426.87402	13.55818	1210.78491	-216.78262	-87.80300	581.99060	-310.77133	71.60651	581.56927	-328.49020	13.04825	586.49701	629.83569	168.67500	580.36542	613.66699	
4	0.030	-200.75404	19.93885	-166.17337	206.96457	18.05760	-210.80560	-135.10841	17.06305	438.72876	268.03983	19.29090	426.86078	13.55534	1210.79602	-216.74408	-88.36282	581.97449	-311.02292	71.61325	581.57080	-328.47336	13.01954	586.49811	629.84027	168.63548	580.33582	613.66382	
5	0.040	-200.71321	19.89111	-166.16025	206.92375	18.01624	-210.82990	-135.13470	17.05397	438.70105	268.02197	19.24486	426.89026	13.48086	1210.82458	-216.74765	-88.41222	582.01105	-311.06485	71.58450	581.58197	-328.48209	13.07897	586.49597	629.85101	168.66228	580.35510	613.65686	
6	0.050	-200.70706	19.92687	-166.18076	206.98395	18.06922	-210.80325	-135.10547	17.06051	438.65616	268.05621	19.25170	426.88196	13.55407	1210.81604	-216.75505	-88.38672	582.00671	-311.05042	71.63281	581.56183	-328.47485	13.02639	586.52063	629.88391	168.66888	580.35638	613.68042	
7	0.060	-200.68877	19.91902	-166.15906	206.91365	18.02778	-210.83060	-135.14862	17.09437	438.65887	267.98892	19.23416	426.82846	13.58077	1210.80322	-216.74097	-88.37090	582.01245	-311.05750	71.60072	581.56116	-328.46423	13.07579	586.50128	629.86334	168.73694	580.35699	613.67639	
8	0.070	-200.69632	19.91601	-166.15900	206.98538	18.06203	-210.76387	-135.12466	17.08546	438.69821	268.10355	19.26615	426.90558	13.53138	1210.81079	-216.78767	-88.32518	581.96973	-311.05899	71.63486	581.57178	-328.46442	13.10299	586.49091	629.80597	168.66158	580.32965	613.67487	
9	0.080	-200.74716	19.90728	-166.15993	206.93745	18.03395	-210.81549	-135.09161	16.99788	438.75275	267.98630	19.23398	426.85452	13.49198	1210.52991	-216.73524	-88.38929	582.01154	-311.05386	71.60439	581.59247	-328.48260	13.11037	586.48517	629.88373	168.59412	580.29211	613.68439	
10	0.090	-200.73389	19.88213	-166.18839	206.96773	18.05112	-210.83029	-135.06656	16.98112	438.71869	267.97766	19.22486	426.85660	13.52697	1210.81433	-216.75587	-88.32592	581.96368	-311.06033	71.66095	581.56818	-328.47055	13.12133	586.47418	629.81989	168.59442	580.30011	613.67603	
11	0.100	-200.69843	19.90794	-166.16141	206.92693	18.03856	-210.78079	-135.08835	17.01508	438.70584	267.98956	19.20979	426.89990	13.59132	1210.79712	-216.75351	-88.31498	581.95270	-311.01950	71.60777	581.56836	-328.46332	13.12662	586.50409	629.87274	168.60713	580.32684	613.67365	
12	0.110	-200.67178	19.92550	-166.13472	206.95830	18.03642	-210.83473	-135.15236	17.09741	438.71286	268.01639	19.24919	426.87372	13.56569	1210.81238	-216.75043	-88.33112	581.97467	-311.05472	71.60885	581.56689	-328.47699	13.07533	586.50330	629.85925	168.69783	580.34888	613.68646	
13	0.120	-200.66850	19.93183	-166.18457	206.97598	18.05685	-210.80350	-135.12268	17.05820	438.67679	267.99594	19.24627	426.85544	13.62028	1210.80945	-216.75238	-88.33524	581.98840	-311.06485	71.63569	581.58417	-328.46277	13.06565	586.52197	629.86139	168.65303	580.37140	613.69482	
14	0.130	-200.76886	19.97443	-166.12889	206.99489	18.06738	-210.79944	-135.15202	17.08279	438.70810	267.98563	19.21805	426.85577	13.55546	1210.82007	-216.76575	-88.38676	582.00537	-311.05707	71.65171	581.59253	-328.46231	13.09986	586.49170	629.86133	168.64616	580.30377	613.65900	
15	0.140	-200.80286	19.95719	-166.16124	206.99883	18.08934	-210.79646	-135.15358	17.08532	438.72342	267.99045	19.22607	426.87997	13.51905	1210.81189	-216.75325	-88.36649	581.98529	-311.03268	71.60678	581.57629	-328.48505	13.02918	586.49841	629.85339	168.60959	580.31421	613.67584	
16	0.150	-200.71175	19.90882	-166.15260	206.96161	18.03807	-210.82932	-135.13576	17.06217	438.68692	267.99423	19.23206	426.86987	13.59602	1210.79639	-216.77310	-88.40894	582.02625	-311.05878	71.66836	581.58972	-328.48575	13.06958	586.49597	629.82703	168.65329	580.32031	613.69067	
17	0.160	-200.70724	19.92656	-166.16913	206.93047	18.05241	-210.81665	-135.14731	17.12286	438.67935	268.02518	19.28771	426.84604	13.56144	1210.80151	-216.77473	-88.38730	582.01007	-311.03516	71.64048	581.56140	-328.45877	13.08817	586.50378	629.87573	168.67961	580.36023	613.66180	
18	0.170	-200.68382	19.96100	-166.18008	206.96846	18.03615	-210.82690	-135.16182	17.17555	438.64529	268.13821	19.30556	426.88663	13.59941	1210.81201	-216.76996	-88.30566	581.99719	-311.05679	71.59404	581.55835	-328.48633	13.03999	586.52979	629.82843	168.69994	580.39771	613.66455	
19	0.180	-200.70874	19.91695	-166.18864	206.93597	18.01803	-210.79266	-135.11281	17.11002	438.64224	268.08774	19.28603	426.88098	13.58767	1210.52502	-216.75055	-88.33828	582.00305	-311.04724	71.65018	581.57819	-328.46744	13.09929	586.51306	629.84845	168.65854	580.39935	613.67969	
20	0.190	-200.77637	19.98663	-166.12819	206.96666	18.03825	-210.82570	-135.18362	17.12092	438.75067	267.99942	19.24604	426.86450	13.47741	1210.82019	-216.79234	-88.28764	581.97443	-311.05225	71.64861	581.56323	-328.44437	13.06814	586.52838	629.85272	168.63721	580.34009	613.66748	
21	0.200	-200.73396	19.96625	-166.19998	206.95418	18.07508	-210.80830	-135.11810	17.08979	438.69724	268.05450	19.27054	426.88367	13.57103	1210.81177	-216.76393	-88.26748	581.93439	-311.01663	71.62138	581.57501	-328.47348	13.03104	586.51746	629.88678	168.65871	580.35370	613.69904	
22	0.210	-200.64188	19.91085	-166.15265	206.95445	18.02868	-210.80978	-135.12941	17.09550	438.66785	268.04385	19.26097	426.84650	13.58868	1210.80945	-216.78053	-88.30406	581.95172	-311.05188	71.63305	581.56281	-328.49545	13.06885	586.50720	629.87219	168.69315	580.35400	613.68115	
23	0.220	-200.66656	19.91419	-166.17401	206.99626	18.08294	-210.81917	-135.14409	17.09624	438.68567	268.02823	19.26507	426.87897	13.57510	1210.82056	-216.77367	-88.31645	581.97955	-311.07745	71.60715	581.56158	-328.47440	13.06035	586.52771	629.88123	168.64325	580.32703	613.67413	
24	0.230	-200.71434	19.91094	-166.16643	207.00238	18.05820	-210.80022	-135.11238	17.08775	438.68018	268.07767	19.27467	426.87808	13.68604	1210.79724	-216.73329	-88.26981	581.96594	-311.04065	71.62352	581.56427	-328.48407	13.09054	586.51306	629.86658	168.69955	580.34674	613.69812	
25	0.240	-200.66829	19.88848	-166.16110	206.97435	18.07069	-210.78870	-135.06342	17.01737	438.73434	267.96710	19.20838	426.85745	13.62508	1210.78979	-216.76407	-88.36262	581.98627	-311.04587	71.63740	581.56860	-328.47476	13.09531	586.50830	629.88788	168.66870	580.33533	613.70813	
26	0.250	-200.71622	19.92184	-166.15630	206.91200	18.02046	-210.85182	-135.05777	16.99580	438.72739	267.96075	19.22121	426.85562	13.53922	1210.81519	-216.77766	-88.31515	581.97656	-311.06430	71.62467	581.58051	-328.48514	13.09409	586.50568	629.85144	168.62793	580.32538	613.70416	
27	0.260	-200.69638	19.92223	-166.20082	206.97217	18.05357	-210.81544	-135.06100	17.02170	438.75616	268.00204	19.22510	426.85806	13.54786	1210.81677	-216.73840	-88.33916	582.00226	-311.04459	71.59924	581.57367	-328.49707	13.10230	586.49780	629.86328	168.61272	580.30280	613.67700	
28	0.270	-200.70634	19.92637	-166.15834	206.99214	18.06057	-210.81827	-135.08044	16.99604	438.75134	268.02365	19.21550	426.86380	13.58767	1210.81970	-216.75241	-88.31264	581.96826	-311.02106	71.64119	581.58228	-328.47058	13.06834	586.48737	629.87646	168.62746	580.32202	613.69440	
29	0.280	-200.71535	19.90769	-166.13638	206.93683	18.05796	-210.82954	-135.07475	17.04230	438.71649	267.98349	19.22032	426.84885	13.61478	1210.53394	-216.73470	-88.31574	581.95984	-311.02335	71.65409	581.56909	-328.49133	13.10275	586.50653	629.86493	168.70151	580.37720	613.69135	
30	0.290	-200.72154	19.92762	-166.19034	206.95802	18.05633	-210.82494	-135.06216	17.01733	438.73123	268.01132	19.26936	426.88232	13.63323	1210.79700	-216.77434	-88.34442	581.97980	-311.07190	71.65304	581.56183	-328.47070	13.13656	586.48688	629.86102	168.62003	580.36047	613.68719	
31	0.300	-200.72655	19.92534	-166.16359	207.00723	18.09030	-210.80792	-135.10280	17.06498	438.72589	268.03912	19.27032	426.88577	13.60009	1210.80273	-216.76625	-88.27277	581.94720	-311.05826	71.62360	581.56281	-328.49863	13.08705	586.48096	629.84424	168.68042	580.33215	613.68213	
32	0.310	-200.74187	19.94044	-166.16574	206.97676	18.07791	-210.80983	-135.11266	17.06139	438.71088	267.92795	19.24375	426.81607	13.63893	1210.81714	-216.77203	-88.32173	581.95300	-311.01855	71.66458	581.57635	-328.46964	13.05646	586.51990	629.86188	168.62535	580.37488	613.68481	
33	0.320	-200.61829	19.89905	-166.17007	206.93523	18.05601	-210.83693	-135.08995	17.04470	438.68539	268.03793	19.26282	426.87207	13.58968	1210.79285	-216.77969	-88.27940	581.96283	-311.04999	71.64401	581.58112	-328.49869	13.09604	586.52618	629.86188	168.70474	580.34143	613.66888	
34	0.330	-200.67052	19.90803	-166.18559	206.93140	18.03763	-210.83194	-135.07350	17.08615	438.63831	268.09753	19.31502	426.88406	13.60623	1210.58008	-216.78391	-88.31628	581.97052	-311.04776	71.63386	581.56384	-328.46863	13.11923	586.52142	629.87305	168.69952	580.38336	613.67023	
35	0.340	-200.69434	19.92358	-166.15755	206.92728	18.04182	-210.85542	-135.10641	17.09138	438.67889	268.04630	19.29638	426.87164	13.60766	1210.79907	-216.81291	-88.33826	582.00439	-311.06906	71.64806	581.58496	-328.46808	13.06352	586.53674	629.83185	168.71880	580.38873	613.65289	
